# xmcd
#
# Track frame offsets: 
#        150
#        18403
#        25924
#        38207
#        55546
#        69724
#        90881
#        102655
#        119167
#        131908
#        144363
#        160884
#        179351
#        189017
#        197406
#
# Disc length: 2718 seconds
#
# Revision: 0
# Processed by: cddbd v1.5.2PL0 Copyright (c) Steve Scherf et al.
# Submitted via: ExactAudioCopyFreeDBPlugin 1.0
#
DISCID=c90a9c0f
DTITLE=Red Clay Ramblers - Stolen Love
DYEAR=1975
DGENRE=Folk/Country
TTITLE0=Yellow Rose of Texas
TTITLE1=Big Sciota
TTITLE2=Abe's Retreat
TTITLE3=The Golden Vanity
TTITLE4=Stolen Love
TTITLE5=I Got What It Takes (But It Breaks My Heart To Give It Away)
TTITLE6=Keep The Home Fires Burning
TTITLE7=Honey Babe
TTITLE8=Balleydesmond Polka
TTITLE9=Wind And Rain
TTITLE10=She's Been After Man Ever Since
TTITLE11=Kingdom Coming
TTITLE12=Staten Island Hornpipe
TTITLE13=Parting Hand
TTITLE14=Forked Deer
EXTD=
EXTT0=
EXTT1=
EXTT2=
EXTT3=
EXTT4=
EXTT5=
EXTT6=
EXTT7=
EXTT8=
EXTT9=
EXTT10=
EXTT11=
EXTT12=
EXTT13=
EXTT14=
PLAYORDER=
